%TF.GenerationSoftware,KiCad,Pcbnew,10.0.4-10.0.4~ubuntu22.04.1*%
%TF.CreationDate,2026-07-29T11:08:51+02:00*%
%TF.ProjectId,keypad4x4,6b657970-6164-4347-9834-2e6b69636164,rev?*%
%TF.SameCoordinates,Original*%
%TF.FileFunction,Legend,Top*%
%TF.FilePolarity,Positive*%
%FSLAX46Y46*%
G04 Gerber Fmt 4.6, Leading zero omitted, Abs format (unit mm)*
G04 Created by KiCad (PCBNEW 10.0.4-10.0.4~ubuntu22.04.1) date 2026-07-29 11:08:51*
%MOMM*%
%LPD*%
G01*
G04 APERTURE LIST*
%ADD10C,0.200000*%
%ADD11C,0.100000*%
%ADD12C,0.120000*%
G04 APERTURE END LIST*
D10*
X128898720Y-67137028D02*
X128784435Y-67079885D01*
X128784435Y-67079885D02*
X128727292Y-67022742D01*
X128727292Y-67022742D02*
X128670149Y-66908457D01*
X128670149Y-66908457D02*
X128670149Y-66851314D01*
X128670149Y-66851314D02*
X128727292Y-66737028D01*
X128727292Y-66737028D02*
X128784435Y-66679885D01*
X128784435Y-66679885D02*
X128898720Y-66622742D01*
X128898720Y-66622742D02*
X129127292Y-66622742D01*
X129127292Y-66622742D02*
X129241578Y-66679885D01*
X129241578Y-66679885D02*
X129298720Y-66737028D01*
X129298720Y-66737028D02*
X129355863Y-66851314D01*
X129355863Y-66851314D02*
X129355863Y-66908457D01*
X129355863Y-66908457D02*
X129298720Y-67022742D01*
X129298720Y-67022742D02*
X129241578Y-67079885D01*
X129241578Y-67079885D02*
X129127292Y-67137028D01*
X129127292Y-67137028D02*
X128898720Y-67137028D01*
X128898720Y-67137028D02*
X128784435Y-67194171D01*
X128784435Y-67194171D02*
X128727292Y-67251314D01*
X128727292Y-67251314D02*
X128670149Y-67365600D01*
X128670149Y-67365600D02*
X128670149Y-67594171D01*
X128670149Y-67594171D02*
X128727292Y-67708457D01*
X128727292Y-67708457D02*
X128784435Y-67765600D01*
X128784435Y-67765600D02*
X128898720Y-67822742D01*
X128898720Y-67822742D02*
X129127292Y-67822742D01*
X129127292Y-67822742D02*
X129241578Y-67765600D01*
X129241578Y-67765600D02*
X129298720Y-67708457D01*
X129298720Y-67708457D02*
X129355863Y-67594171D01*
X129355863Y-67594171D02*
X129355863Y-67365600D01*
X129355863Y-67365600D02*
X129298720Y-67251314D01*
X129298720Y-67251314D02*
X129241578Y-67194171D01*
X129241578Y-67194171D02*
X129127292Y-67137028D01*
X125953006Y-66742742D02*
X126753006Y-66742742D01*
X126753006Y-66742742D02*
X126238720Y-67942742D01*
X123981578Y-66742742D02*
X123753006Y-66742742D01*
X123753006Y-66742742D02*
X123638720Y-66799885D01*
X123638720Y-66799885D02*
X123581578Y-66857028D01*
X123581578Y-66857028D02*
X123467292Y-67028457D01*
X123467292Y-67028457D02*
X123410149Y-67257028D01*
X123410149Y-67257028D02*
X123410149Y-67714171D01*
X123410149Y-67714171D02*
X123467292Y-67828457D01*
X123467292Y-67828457D02*
X123524435Y-67885600D01*
X123524435Y-67885600D02*
X123638720Y-67942742D01*
X123638720Y-67942742D02*
X123867292Y-67942742D01*
X123867292Y-67942742D02*
X123981578Y-67885600D01*
X123981578Y-67885600D02*
X124038720Y-67828457D01*
X124038720Y-67828457D02*
X124095863Y-67714171D01*
X124095863Y-67714171D02*
X124095863Y-67428457D01*
X124095863Y-67428457D02*
X124038720Y-67314171D01*
X124038720Y-67314171D02*
X123981578Y-67257028D01*
X123981578Y-67257028D02*
X123867292Y-67199885D01*
X123867292Y-67199885D02*
X123638720Y-67199885D01*
X123638720Y-67199885D02*
X123524435Y-67257028D01*
X123524435Y-67257028D02*
X123467292Y-67314171D01*
X123467292Y-67314171D02*
X123410149Y-67428457D01*
X121568720Y-66802742D02*
X120997292Y-66802742D01*
X120997292Y-66802742D02*
X120940149Y-67374171D01*
X120940149Y-67374171D02*
X120997292Y-67317028D01*
X120997292Y-67317028D02*
X121111578Y-67259885D01*
X121111578Y-67259885D02*
X121397292Y-67259885D01*
X121397292Y-67259885D02*
X121511578Y-67317028D01*
X121511578Y-67317028D02*
X121568720Y-67374171D01*
X121568720Y-67374171D02*
X121625863Y-67488457D01*
X121625863Y-67488457D02*
X121625863Y-67774171D01*
X121625863Y-67774171D02*
X121568720Y-67888457D01*
X121568720Y-67888457D02*
X121511578Y-67945600D01*
X121511578Y-67945600D02*
X121397292Y-68002742D01*
X121397292Y-68002742D02*
X121111578Y-68002742D01*
X121111578Y-68002742D02*
X120997292Y-67945600D01*
X120997292Y-67945600D02*
X120940149Y-67888457D01*
X118971578Y-67272742D02*
X118971578Y-68072742D01*
X118685863Y-66815600D02*
X118400149Y-67672742D01*
X118400149Y-67672742D02*
X119143006Y-67672742D01*
X115743006Y-66802742D02*
X116485863Y-66802742D01*
X116485863Y-66802742D02*
X116085863Y-67259885D01*
X116085863Y-67259885D02*
X116257292Y-67259885D01*
X116257292Y-67259885D02*
X116371578Y-67317028D01*
X116371578Y-67317028D02*
X116428720Y-67374171D01*
X116428720Y-67374171D02*
X116485863Y-67488457D01*
X116485863Y-67488457D02*
X116485863Y-67774171D01*
X116485863Y-67774171D02*
X116428720Y-67888457D01*
X116428720Y-67888457D02*
X116371578Y-67945600D01*
X116371578Y-67945600D02*
X116257292Y-68002742D01*
X116257292Y-68002742D02*
X115914435Y-68002742D01*
X115914435Y-68002742D02*
X115800149Y-67945600D01*
X115800149Y-67945600D02*
X115743006Y-67888457D01*
X113200149Y-66917028D02*
X113257292Y-66859885D01*
X113257292Y-66859885D02*
X113371578Y-66802742D01*
X113371578Y-66802742D02*
X113657292Y-66802742D01*
X113657292Y-66802742D02*
X113771578Y-66859885D01*
X113771578Y-66859885D02*
X113828720Y-66917028D01*
X113828720Y-66917028D02*
X113885863Y-67031314D01*
X113885863Y-67031314D02*
X113885863Y-67145600D01*
X113885863Y-67145600D02*
X113828720Y-67317028D01*
X113828720Y-67317028D02*
X113143006Y-68002742D01*
X113143006Y-68002742D02*
X113885863Y-68002742D01*
X111260863Y-67942742D02*
X110575149Y-67942742D01*
X110918006Y-67942742D02*
X110918006Y-66742742D01*
X110918006Y-66742742D02*
X110803720Y-66914171D01*
X110803720Y-66914171D02*
X110689435Y-67028457D01*
X110689435Y-67028457D02*
X110575149Y-67085600D01*
%TO.C,S10*%
D11*
X123440000Y-91430000D02*
G75*
G02*
X123340000Y-91430000I-50000J0D01*
G01*
X123340000Y-91430000D02*
G75*
G02*
X123440000Y-91430000I50000J0D01*
G01*
D10*
X131340000Y-92230000D02*
X131340000Y-94630000D01*
X125140000Y-96530000D02*
X131340000Y-96530000D01*
X125140000Y-92230000D02*
X125140000Y-94630000D01*
X125140000Y-90330000D02*
X131340000Y-90330000D01*
D11*
X123440000Y-91430000D02*
X123440000Y-91430000D01*
X123340000Y-91430000D02*
X123340000Y-91430000D01*
%TO.C,S12*%
X123440000Y-130490000D02*
G75*
G02*
X123340000Y-130490000I-50000J0D01*
G01*
X123340000Y-130490000D02*
G75*
G02*
X123440000Y-130490000I50000J0D01*
G01*
D10*
X131340000Y-131290000D02*
X131340000Y-133690000D01*
X125140000Y-135590000D02*
X131340000Y-135590000D01*
X125140000Y-131290000D02*
X125140000Y-133690000D01*
X125140000Y-129390000D02*
X131340000Y-129390000D01*
D11*
X123440000Y-130490000D02*
X123440000Y-130490000D01*
X123340000Y-130490000D02*
X123340000Y-130490000D01*
%TO.C,S14*%
X143440000Y-91490000D02*
G75*
G02*
X143340000Y-91490000I-50000J0D01*
G01*
X143340000Y-91490000D02*
G75*
G02*
X143440000Y-91490000I50000J0D01*
G01*
D10*
X151340000Y-92290000D02*
X151340000Y-94690000D01*
X145140000Y-96590000D02*
X151340000Y-96590000D01*
X145140000Y-92290000D02*
X145140000Y-94690000D01*
X145140000Y-90390000D02*
X151340000Y-90390000D01*
D11*
X143440000Y-91490000D02*
X143440000Y-91490000D01*
X143340000Y-91490000D02*
X143340000Y-91490000D01*
%TO.C,S13*%
X143440000Y-71990000D02*
G75*
G02*
X143340000Y-71990000I-50000J0D01*
G01*
X143340000Y-71990000D02*
G75*
G02*
X143440000Y-71990000I50000J0D01*
G01*
D10*
X151340000Y-72790000D02*
X151340000Y-75190000D01*
X145140000Y-77090000D02*
X151340000Y-77090000D01*
X145140000Y-72790000D02*
X145140000Y-75190000D01*
X145140000Y-70890000D02*
X151340000Y-70890000D01*
D11*
X143440000Y-71990000D02*
X143440000Y-71990000D01*
X143340000Y-71990000D02*
X143340000Y-71990000D01*
%TO.C,S15*%
X143370000Y-111090000D02*
X143370000Y-111090000D01*
X143470000Y-111090000D02*
X143470000Y-111090000D01*
D10*
X145170000Y-109990000D02*
X151370000Y-109990000D01*
X145170000Y-111890000D02*
X145170000Y-114290000D01*
X145170000Y-116190000D02*
X151370000Y-116190000D01*
X151370000Y-111890000D02*
X151370000Y-114290000D01*
D11*
X143370000Y-111090000D02*
G75*
G02*
X143470000Y-111090000I50000J0D01*
G01*
X143470000Y-111090000D02*
G75*
G02*
X143370000Y-111090000I-50000J0D01*
G01*
%TO.C,S16*%
X143370000Y-130600000D02*
X143370000Y-130600000D01*
X143470000Y-130600000D02*
X143470000Y-130600000D01*
D10*
X145170000Y-129500000D02*
X151370000Y-129500000D01*
X145170000Y-131400000D02*
X145170000Y-133800000D01*
X145170000Y-135700000D02*
X151370000Y-135700000D01*
X151370000Y-131400000D02*
X151370000Y-133800000D01*
D11*
X143370000Y-130600000D02*
G75*
G02*
X143470000Y-130600000I50000J0D01*
G01*
X143470000Y-130600000D02*
G75*
G02*
X143370000Y-130600000I-50000J0D01*
G01*
%TO.C,S9*%
X123440000Y-71990000D02*
G75*
G02*
X123340000Y-71990000I-50000J0D01*
G01*
X123340000Y-71990000D02*
G75*
G02*
X123440000Y-71990000I50000J0D01*
G01*
D10*
X131340000Y-72790000D02*
X131340000Y-75190000D01*
X125140000Y-77090000D02*
X131340000Y-77090000D01*
X125140000Y-72790000D02*
X125140000Y-75190000D01*
X125140000Y-70890000D02*
X131340000Y-70890000D01*
D11*
X123440000Y-71990000D02*
X123440000Y-71990000D01*
X123340000Y-71990000D02*
X123340000Y-71990000D01*
%TO.C,S11*%
X123330000Y-110980000D02*
X123330000Y-110980000D01*
X123430000Y-110980000D02*
X123430000Y-110980000D01*
D10*
X125130000Y-109880000D02*
X131330000Y-109880000D01*
X125130000Y-111780000D02*
X125130000Y-114180000D01*
X125130000Y-116080000D02*
X131330000Y-116080000D01*
X131330000Y-111780000D02*
X131330000Y-114180000D01*
D11*
X123330000Y-110980000D02*
G75*
G02*
X123430000Y-110980000I50000J0D01*
G01*
X123430000Y-110980000D02*
G75*
G02*
X123330000Y-110980000I-50000J0D01*
G01*
%TO.C,J1*%
D12*
X109525000Y-66355000D02*
X109525000Y-64975000D01*
X110905000Y-66355000D02*
X109525000Y-66355000D01*
X112175000Y-66355000D02*
X130065000Y-66355000D01*
X112175000Y-66355000D02*
X112175000Y-63595000D01*
X130065000Y-66355000D02*
X130065000Y-63595000D01*
X112175000Y-63595000D02*
X130065000Y-63595000D01*
%TO.C,S4*%
D11*
X83320000Y-130510000D02*
X83320000Y-130510000D01*
X83420000Y-130510000D02*
X83420000Y-130510000D01*
D10*
X85120000Y-129410000D02*
X91320000Y-129410000D01*
X85120000Y-131310000D02*
X85120000Y-133710000D01*
X85120000Y-135610000D02*
X91320000Y-135610000D01*
X91320000Y-131310000D02*
X91320000Y-133710000D01*
D11*
X83320000Y-130510000D02*
G75*
G02*
X83420000Y-130510000I50000J0D01*
G01*
X83420000Y-130510000D02*
G75*
G02*
X83320000Y-130510000I-50000J0D01*
G01*
%TO.C,S2*%
X83340000Y-91490000D02*
X83340000Y-91490000D01*
X83440000Y-91490000D02*
X83440000Y-91490000D01*
D10*
X85140000Y-90390000D02*
X91340000Y-90390000D01*
X85140000Y-92290000D02*
X85140000Y-94690000D01*
X85140000Y-96590000D02*
X91340000Y-96590000D01*
X91340000Y-92290000D02*
X91340000Y-94690000D01*
D11*
X83340000Y-91490000D02*
G75*
G02*
X83440000Y-91490000I50000J0D01*
G01*
X83440000Y-91490000D02*
G75*
G02*
X83340000Y-91490000I-50000J0D01*
G01*
%TO.C,S3*%
X83330000Y-110990000D02*
X83330000Y-110990000D01*
X83430000Y-110990000D02*
X83430000Y-110990000D01*
D10*
X85130000Y-109890000D02*
X91330000Y-109890000D01*
X85130000Y-111790000D02*
X85130000Y-114190000D01*
X85130000Y-116090000D02*
X91330000Y-116090000D01*
X91330000Y-111790000D02*
X91330000Y-114190000D01*
D11*
X83330000Y-110990000D02*
G75*
G02*
X83430000Y-110990000I50000J0D01*
G01*
X83430000Y-110990000D02*
G75*
G02*
X83330000Y-110990000I-50000J0D01*
G01*
%TO.C,S1*%
X83540000Y-71990000D02*
G75*
G02*
X83440000Y-71990000I-50000J0D01*
G01*
X83440000Y-71990000D02*
G75*
G02*
X83540000Y-71990000I50000J0D01*
G01*
D10*
X91440000Y-72790000D02*
X91440000Y-75190000D01*
X85240000Y-77090000D02*
X91440000Y-77090000D01*
X85240000Y-72790000D02*
X85240000Y-75190000D01*
X85240000Y-70890000D02*
X91440000Y-70890000D01*
D11*
X83540000Y-71990000D02*
X83540000Y-71990000D01*
X83440000Y-71990000D02*
X83440000Y-71990000D01*
%TO.C,S5*%
X103440000Y-71990000D02*
G75*
G02*
X103340000Y-71990000I-50000J0D01*
G01*
X103340000Y-71990000D02*
G75*
G02*
X103440000Y-71990000I50000J0D01*
G01*
D10*
X111340000Y-72790000D02*
X111340000Y-75190000D01*
X105140000Y-77090000D02*
X111340000Y-77090000D01*
X105140000Y-72790000D02*
X105140000Y-75190000D01*
X105140000Y-70890000D02*
X111340000Y-70890000D01*
D11*
X103440000Y-71990000D02*
X103440000Y-71990000D01*
X103340000Y-71990000D02*
X103340000Y-71990000D01*
%TO.C,S7*%
X103340000Y-111030000D02*
X103340000Y-111030000D01*
X103440000Y-111030000D02*
X103440000Y-111030000D01*
D10*
X105140000Y-109930000D02*
X111340000Y-109930000D01*
X105140000Y-111830000D02*
X105140000Y-114230000D01*
X105140000Y-116130000D02*
X111340000Y-116130000D01*
X111340000Y-111830000D02*
X111340000Y-114230000D01*
D11*
X103340000Y-111030000D02*
G75*
G02*
X103440000Y-111030000I50000J0D01*
G01*
X103440000Y-111030000D02*
G75*
G02*
X103340000Y-111030000I-50000J0D01*
G01*
%TO.C,S8*%
X103350000Y-130580000D02*
X103350000Y-130580000D01*
X103450000Y-130580000D02*
X103450000Y-130580000D01*
D10*
X105150000Y-129480000D02*
X111350000Y-129480000D01*
X105150000Y-131380000D02*
X105150000Y-133780000D01*
X105150000Y-135680000D02*
X111350000Y-135680000D01*
X111350000Y-131380000D02*
X111350000Y-133780000D01*
D11*
X103350000Y-130580000D02*
G75*
G02*
X103450000Y-130580000I50000J0D01*
G01*
X103450000Y-130580000D02*
G75*
G02*
X103350000Y-130580000I-50000J0D01*
G01*
%TO.C,S6*%
X103440000Y-91490000D02*
G75*
G02*
X103340000Y-91490000I-50000J0D01*
G01*
X103340000Y-91490000D02*
G75*
G02*
X103440000Y-91490000I50000J0D01*
G01*
D10*
X111340000Y-92290000D02*
X111340000Y-94690000D01*
X105140000Y-96590000D02*
X111340000Y-96590000D01*
X105140000Y-92290000D02*
X105140000Y-94690000D01*
X105140000Y-90390000D02*
X111340000Y-90390000D01*
D11*
X103440000Y-91490000D02*
X103440000Y-91490000D01*
X103340000Y-91490000D02*
X103340000Y-91490000D01*
%TD*%
M02*
