%TF.GenerationSoftware,KiCad,Pcbnew,10.0.4-10.0.4~ubuntu22.04.1*%
%TF.CreationDate,2026-07-29T11:08:48+02:00*%
%TF.ProjectId,keypad4x4,6b657970-6164-4347-9834-2e6b69636164,rev?*%
%TF.SameCoordinates,Original*%
%TF.FileFunction,Copper,L1,Top*%
%TF.FilePolarity,Positive*%
%FSLAX46Y46*%
G04 Gerber Fmt 4.6, Leading zero omitted, Abs format (unit mm)*
G04 Created by KiCad (PCBNEW 10.0.4-10.0.4~ubuntu22.04.1) date 2026-07-29 11:08:48*
%MOMM*%
%LPD*%
G01*
G04 APERTURE LIST*
%TA.AperFunction,SMDPad,CuDef*%
%ADD10R,2.800000X1.000000*%
%TD*%
%TA.AperFunction,ComponentPad*%
%ADD11R,1.700000X1.700000*%
%TD*%
%TA.AperFunction,ComponentPad*%
%ADD12C,1.700000*%
%TD*%
%TA.AperFunction,Conductor*%
%ADD13C,0.300000*%
%TD*%
G04 APERTURE END LIST*
D10*
%TO.P,S10,4,COM_2_4*%
%TO.N,Net-(J1-Pin_6)*%
X131140000Y-95430000D03*
%TO.P,S10,3,COM_1_3*%
%TO.N,unconnected-(S10-COM_1-Pad3)*%
X125340000Y-95430000D03*
%TO.P,S10,2,NO_2_2*%
%TO.N,unconnected-(S10-NO_2-Pad2)*%
X131140000Y-91430000D03*
%TO.P,S10,1,NO_1_1*%
%TO.N,Net-(J1-Pin_3)*%
X125340000Y-91430000D03*
%TD*%
%TO.P,S12,4,COM_2_4*%
%TO.N,Net-(J1-Pin_8)*%
X131140000Y-134490000D03*
%TO.P,S12,3,COM_1_3*%
%TO.N,unconnected-(S12-COM_1-Pad3)*%
X125340000Y-134490000D03*
%TO.P,S12,2,NO_2_2*%
%TO.N,unconnected-(S12-NO_2-Pad2)*%
X131140000Y-130490000D03*
%TO.P,S12,1,NO_1_1*%
%TO.N,Net-(J1-Pin_3)*%
X125340000Y-130490000D03*
%TD*%
%TO.P,S14,4,COM_2_4*%
%TO.N,Net-(J1-Pin_6)*%
X151140000Y-95490000D03*
%TO.P,S14,3,COM_1_3*%
%TO.N,unconnected-(S14-COM_1-Pad3)*%
X145340000Y-95490000D03*
%TO.P,S14,2,NO_2_2*%
%TO.N,unconnected-(S14-NO_2-Pad2)*%
X151140000Y-91490000D03*
%TO.P,S14,1,NO_1_1*%
%TO.N,Net-(J1-Pin_4)*%
X145340000Y-91490000D03*
%TD*%
%TO.P,S13,4,COM_2_4*%
%TO.N,Net-(J1-Pin_5)*%
X151140000Y-75990000D03*
%TO.P,S13,3,COM_1_3*%
%TO.N,unconnected-(S13-COM_1-Pad3)*%
X145340000Y-75990000D03*
%TO.P,S13,2,NO_2_2*%
%TO.N,unconnected-(S13-NO_2-Pad2)*%
X151140000Y-71990000D03*
%TO.P,S13,1,NO_1_1*%
%TO.N,Net-(J1-Pin_4)*%
X145340000Y-71990000D03*
%TD*%
%TO.P,S15,1,NO_1_1*%
%TO.N,Net-(J1-Pin_4)*%
X145370000Y-111090000D03*
%TO.P,S15,2,NO_2_2*%
%TO.N,unconnected-(S15-NO_2-Pad2)*%
X151170000Y-111090000D03*
%TO.P,S15,3,COM_1_3*%
%TO.N,unconnected-(S15-COM_1-Pad3)*%
X145370000Y-115090000D03*
%TO.P,S15,4,COM_2_4*%
%TO.N,Net-(J1-Pin_7)*%
X151170000Y-115090000D03*
%TD*%
%TO.P,S16,1,NO_1_1*%
%TO.N,Net-(J1-Pin_4)*%
X145370000Y-130600000D03*
%TO.P,S16,2,NO_2_2*%
%TO.N,unconnected-(S16-NO_2-Pad2)*%
X151170000Y-130600000D03*
%TO.P,S16,3,COM_1_3*%
%TO.N,unconnected-(S16-COM_1-Pad3)*%
X145370000Y-134600000D03*
%TO.P,S16,4,COM_2_4*%
%TO.N,Net-(J1-Pin_8)*%
X151170000Y-134600000D03*
%TD*%
%TO.P,S9,4,COM_2_4*%
%TO.N,Net-(J1-Pin_5)*%
X131140000Y-75990000D03*
%TO.P,S9,3,COM_1_3*%
%TO.N,unconnected-(S9-COM_1-Pad3)*%
X125340000Y-75990000D03*
%TO.P,S9,2,NO_2_2*%
%TO.N,unconnected-(S9-NO_2-Pad2)*%
X131140000Y-71990000D03*
%TO.P,S9,1,NO_1_1*%
%TO.N,Net-(J1-Pin_3)*%
X125340000Y-71990000D03*
%TD*%
%TO.P,S11,1,NO_1_1*%
%TO.N,Net-(J1-Pin_3)*%
X125330000Y-110980000D03*
%TO.P,S11,2,NO_2_2*%
%TO.N,unconnected-(S11-NO_2-Pad2)*%
X131130000Y-110980000D03*
%TO.P,S11,3,COM_1_3*%
%TO.N,unconnected-(S11-COM_1-Pad3)*%
X125330000Y-114980000D03*
%TO.P,S11,4,COM_2_4*%
%TO.N,Net-(J1-Pin_7)*%
X131130000Y-114980000D03*
%TD*%
D11*
%TO.P,J1,1,Pin_1_1*%
%TO.N,Net-(J1-Pin_1)*%
X110905000Y-64975000D03*
D12*
%TO.P,J1,2,Pin_2_2*%
%TO.N,Net-(J1-Pin_2)*%
X113445000Y-64975000D03*
%TO.P,J1,3,Pin_3_3*%
%TO.N,Net-(J1-Pin_3)*%
X115985000Y-64975000D03*
%TO.P,J1,4,Pin_4_4*%
%TO.N,Net-(J1-Pin_4)*%
X118525000Y-64975000D03*
%TO.P,J1,5,Pin_5_5*%
%TO.N,Net-(J1-Pin_5)*%
X121065000Y-64975000D03*
%TO.P,J1,6,Pin_6_6*%
%TO.N,Net-(J1-Pin_6)*%
X123605000Y-64975000D03*
%TO.P,J1,7,Pin_7_7*%
%TO.N,Net-(J1-Pin_7)*%
X126145000Y-64975000D03*
%TO.P,J1,8,Pin_8_8*%
%TO.N,Net-(J1-Pin_8)*%
X128685000Y-64975000D03*
%TD*%
D10*
%TO.P,S4,1,NO_1_1*%
%TO.N,Net-(J1-Pin_1)*%
X85320000Y-130510000D03*
%TO.P,S4,2,NO_2_2*%
%TO.N,unconnected-(S4-NO_2-Pad2)*%
X91120000Y-130510000D03*
%TO.P,S4,3,COM_1_3*%
%TO.N,unconnected-(S4-COM_1-Pad3)*%
X85320000Y-134510000D03*
%TO.P,S4,4,COM_2_4*%
%TO.N,Net-(J1-Pin_8)*%
X91120000Y-134510000D03*
%TD*%
%TO.P,S2,1,NO_1_1*%
%TO.N,Net-(J1-Pin_1)*%
X85340000Y-91490000D03*
%TO.P,S2,2,NO_2_2*%
%TO.N,unconnected-(S2-NO_2-Pad2)*%
X91140000Y-91490000D03*
%TO.P,S2,3,COM_1_3*%
%TO.N,unconnected-(S2-COM_1-Pad3)*%
X85340000Y-95490000D03*
%TO.P,S2,4,COM_2_4*%
%TO.N,Net-(J1-Pin_6)*%
X91140000Y-95490000D03*
%TD*%
%TO.P,S3,1,NO_1_1*%
%TO.N,Net-(J1-Pin_1)*%
X85330000Y-110990000D03*
%TO.P,S3,2,NO_2_2*%
%TO.N,unconnected-(S3-NO_2-Pad2)*%
X91130000Y-110990000D03*
%TO.P,S3,3,COM_1_3*%
%TO.N,unconnected-(S3-COM_1-Pad3)*%
X85330000Y-114990000D03*
%TO.P,S3,4,COM_2_4*%
%TO.N,Net-(J1-Pin_7)*%
X91130000Y-114990000D03*
%TD*%
%TO.P,S1,4,COM_2_4*%
%TO.N,Net-(J1-Pin_5)*%
X91240000Y-75990000D03*
%TO.P,S1,3,COM_1_3*%
%TO.N,unconnected-(S1-COM_1-Pad3)*%
X85440000Y-75990000D03*
%TO.P,S1,2,NO_2_2*%
%TO.N,unconnected-(S1-NO_2-Pad2)*%
X91240000Y-71990000D03*
%TO.P,S1,1,NO_1_1*%
%TO.N,Net-(J1-Pin_1)*%
X85440000Y-71990000D03*
%TD*%
%TO.P,S5,4,COM_2_4*%
%TO.N,Net-(J1-Pin_5)*%
X111140000Y-75990000D03*
%TO.P,S5,3,COM_1_3*%
%TO.N,unconnected-(S5-COM_1-Pad3)*%
X105340000Y-75990000D03*
%TO.P,S5,2,NO_2_2*%
%TO.N,unconnected-(S5-NO_2-Pad2)*%
X111140000Y-71990000D03*
%TO.P,S5,1,NO_1_1*%
%TO.N,Net-(J1-Pin_2)*%
X105340000Y-71990000D03*
%TD*%
%TO.P,S7,1,NO_1_1*%
%TO.N,Net-(J1-Pin_2)*%
X105340000Y-111030000D03*
%TO.P,S7,2,NO_2_2*%
%TO.N,unconnected-(S7-NO_2-Pad2)*%
X111140000Y-111030000D03*
%TO.P,S7,3,COM_1_3*%
%TO.N,unconnected-(S7-COM_1-Pad3)*%
X105340000Y-115030000D03*
%TO.P,S7,4,COM_2_4*%
%TO.N,Net-(J1-Pin_7)*%
X111140000Y-115030000D03*
%TD*%
%TO.P,S8,1,NO_1_1*%
%TO.N,Net-(J1-Pin_2)*%
X105350000Y-130580000D03*
%TO.P,S8,2,NO_2_2*%
%TO.N,unconnected-(S8-NO_2-Pad2)*%
X111150000Y-130580000D03*
%TO.P,S8,3,COM_1_3*%
%TO.N,unconnected-(S8-COM_1-Pad3)*%
X105350000Y-134580000D03*
%TO.P,S8,4,COM_2_4*%
%TO.N,Net-(J1-Pin_8)*%
X111150000Y-134580000D03*
%TD*%
%TO.P,S6,4,COM_2_4*%
%TO.N,Net-(J1-Pin_6)*%
X111140000Y-95490000D03*
%TO.P,S6,3,COM_1_3*%
%TO.N,unconnected-(S6-COM_1-Pad3)*%
X105340000Y-95490000D03*
%TO.P,S6,2,NO_2_2*%
%TO.N,unconnected-(S6-NO_2-Pad2)*%
X111140000Y-91490000D03*
%TO.P,S6,1,NO_1_1*%
%TO.N,Net-(J1-Pin_2)*%
X105340000Y-91490000D03*
%TD*%
%TO.N,Net-(J1-Pin_1)*%
D13*
X78210000Y-90030000D02*
X78210000Y-88350000D01*
X80930000Y-71990000D02*
X85440000Y-71990000D01*
X78210000Y-90030000D02*
X78210000Y-88790000D01*
X78210000Y-88790000D02*
X77960000Y-88540000D01*
X77960000Y-88540000D02*
X77960000Y-74960000D01*
X77960000Y-74960000D02*
X80930000Y-71990000D01*
%TO.N,Net-(J1-Pin_4)*%
X119960000Y-66410000D02*
X119960000Y-70250000D01*
X118525000Y-64975000D02*
X119960000Y-66410000D01*
X136420000Y-71990000D02*
X134680000Y-70250000D01*
X119960000Y-70250000D02*
X134680000Y-70250000D01*
%TO.N,Net-(J1-Pin_3)*%
X115985000Y-64975000D02*
X115985000Y-67955000D01*
X115985000Y-67955000D02*
X120020000Y-71990000D01*
X120020000Y-71990000D02*
X125340000Y-71990000D01*
%TO.N,Net-(J1-Pin_4)*%
X145340000Y-71990000D02*
X136420000Y-71990000D01*
%TO.N,Net-(J1-Pin_8)*%
X152960000Y-140470000D02*
X153170000Y-140470000D01*
X157670000Y-65700000D02*
X129410000Y-65700000D01*
X153170000Y-140470000D02*
X158590000Y-135050000D01*
X158590000Y-135050000D02*
X158600000Y-135050000D01*
X158600000Y-135050000D02*
X158600000Y-66630000D01*
X158600000Y-66630000D02*
X157670000Y-65700000D01*
X129410000Y-65700000D02*
X128685000Y-64975000D01*
%TO.N,Net-(J1-Pin_7)*%
X155950000Y-123070000D02*
X157300000Y-121720000D01*
X157300000Y-121720000D02*
X157300000Y-67410000D01*
X157300000Y-67410000D02*
X156570000Y-66680000D01*
X156570000Y-66680000D02*
X126990000Y-66680000D01*
X126990000Y-66680000D02*
X126145000Y-65835000D01*
X126145000Y-65835000D02*
X126145000Y-64975000D01*
%TO.N,Net-(J1-Pin_6)*%
X123605000Y-67075000D02*
X124030000Y-67500000D01*
X156100000Y-99310000D02*
X156100000Y-68960000D01*
X154640000Y-67500000D02*
X156100000Y-68960000D01*
X123605000Y-64975000D02*
X123605000Y-67075000D01*
X124030000Y-67500000D02*
X154640000Y-67500000D01*
%TO.N,Net-(J1-Pin_5)*%
X154820000Y-78380000D02*
X154820000Y-69470000D01*
X154820000Y-69470000D02*
X153450000Y-68100000D01*
X153450000Y-68100000D02*
X121790000Y-68100000D01*
X121790000Y-68100000D02*
X121065000Y-67375000D01*
X121065000Y-67375000D02*
X121065000Y-64975000D01*
%TO.N,Net-(J1-Pin_2)*%
X105340000Y-71990000D02*
X105340000Y-70620000D01*
X105340000Y-70620000D02*
X105860000Y-70100000D01*
X105860000Y-70100000D02*
X111030000Y-70100000D01*
%TO.N,Net-(J1-Pin_3)*%
X125340000Y-91430000D02*
X120110000Y-91430000D01*
X92730000Y-82510000D02*
X88350000Y-78130000D01*
X97160000Y-70400000D02*
X100290000Y-73530000D01*
X120110000Y-91430000D02*
X118460000Y-89780000D01*
X118460000Y-89780000D02*
X118460000Y-84270000D01*
X118460000Y-84270000D02*
X116700000Y-82510000D01*
X116700000Y-82510000D02*
X92730000Y-82510000D01*
X88350000Y-78130000D02*
X88350000Y-70500000D01*
X100290000Y-73530000D02*
X123800000Y-73530000D01*
X88350000Y-70500000D02*
X88450000Y-70400000D01*
X88450000Y-70400000D02*
X97160000Y-70400000D01*
X123800000Y-73530000D02*
X125340000Y-71990000D01*
%TO.N,Net-(J1-Pin_4)*%
X89120000Y-77487106D02*
X89120000Y-75110000D01*
X93152894Y-81520000D02*
X89120000Y-77487106D01*
X145340000Y-83840000D02*
X143020000Y-81520000D01*
X89120000Y-75110000D02*
X89950000Y-74280000D01*
X143020000Y-81520000D02*
X93152894Y-81520000D01*
X145340000Y-91490000D02*
X145340000Y-83840000D01*
X89950000Y-74280000D02*
X143050000Y-74280000D01*
X143050000Y-74280000D02*
X145340000Y-71990000D01*
%TO.N,Net-(J1-Pin_2)*%
X89210000Y-87180000D02*
X88780000Y-87180000D01*
X103480000Y-71990000D02*
X105340000Y-71990000D01*
X89210000Y-87180000D02*
X88920000Y-87180000D01*
X88920000Y-87180000D02*
X87460000Y-85720000D01*
X90250000Y-67170000D02*
X98660000Y-67170000D01*
X87460000Y-85720000D02*
X87490000Y-85690000D01*
X87490000Y-85690000D02*
X87490000Y-69930000D01*
X87490000Y-69930000D02*
X90250000Y-67170000D01*
X98660000Y-67170000D02*
X103480000Y-71990000D01*
X95230000Y-87180000D02*
X89210000Y-87180000D01*
%TO.N,Net-(J1-Pin_5)*%
X92870000Y-80530000D02*
X113310000Y-80530000D01*
X111140000Y-75990000D02*
X111140000Y-78360000D01*
X111140000Y-78360000D02*
X113310000Y-80530000D01*
X113310000Y-80530000D02*
X134050000Y-80530000D01*
X131140000Y-75990000D02*
X131140000Y-77620000D01*
X131140000Y-77620000D02*
X134050000Y-80530000D01*
X154820000Y-78980000D02*
X154820000Y-78380000D01*
X152430000Y-75990000D02*
X154820000Y-78380000D01*
X151140000Y-75990000D02*
X152430000Y-75990000D01*
X153270000Y-80530000D02*
X154820000Y-78980000D01*
X134050000Y-80530000D02*
X153270000Y-80530000D01*
X91240000Y-78900000D02*
X92870000Y-80530000D01*
X91240000Y-75990000D02*
X91240000Y-78900000D01*
%TO.N,Net-(J1-Pin_3)*%
X94550000Y-88000000D02*
X99960000Y-93410000D01*
%TO.N,Net-(J1-Pin_6)*%
X112830000Y-102160000D02*
X135370000Y-102160000D01*
%TO.N,Net-(J1-Pin_4)*%
X141340000Y-103000000D02*
X141240000Y-103100000D01*
%TO.N,Net-(J1-Pin_6)*%
X131140000Y-97930000D02*
X135370000Y-102160000D01*
%TO.N,Net-(J1-Pin_4)*%
X142710000Y-113750000D02*
X145370000Y-111090000D01*
%TO.N,Net-(J1-Pin_7)*%
X154360000Y-124660000D02*
X155950000Y-123070000D01*
%TO.N,Net-(J1-Pin_8)*%
X133280000Y-140470000D02*
X152960000Y-140470000D01*
%TO.N,Net-(J1-Pin_4)*%
X96490000Y-108760000D02*
X101480000Y-113750000D01*
%TO.N,Net-(J1-Pin_3)*%
X125340000Y-129470000D02*
X122690000Y-126820000D01*
X122690000Y-126820000D02*
X94130000Y-126820000D01*
%TO.N,Net-(J1-Pin_6)*%
X154860000Y-100550000D02*
X156100000Y-99310000D01*
%TO.N,Net-(J1-Pin_3)*%
X88130000Y-108560000D02*
X88820000Y-107870000D01*
%TO.N,Net-(J1-Pin_2)*%
X99540000Y-91490000D02*
X95230000Y-87180000D01*
%TO.N,Net-(J1-Pin_4)*%
X138570000Y-93960000D02*
X138390000Y-94140000D01*
%TO.N,Net-(J1-Pin_2)*%
X94070000Y-127930000D02*
X87410000Y-121270000D01*
%TO.N,Net-(J1-Pin_6)*%
X135370000Y-102160000D02*
X153250000Y-102160000D01*
%TO.N,Net-(J1-Pin_7)*%
X151170000Y-115090000D02*
X151170000Y-118290000D01*
X113590000Y-124660000D02*
X132720000Y-124660000D01*
X151170000Y-118290000D02*
X155950000Y-123070000D01*
%TO.N,Net-(J1-Pin_8)*%
X151170000Y-134600000D02*
X151170000Y-138680000D01*
%TO.N,Net-(J1-Pin_2)*%
X87410000Y-121270000D02*
X87410000Y-108220000D01*
X87380000Y-108190000D02*
X87585000Y-107985000D01*
%TO.N,Net-(J1-Pin_4)*%
X88790000Y-109590000D02*
X89620000Y-108760000D01*
X145370000Y-130600000D02*
X145370000Y-128280000D01*
%TO.N,Net-(J1-Pin_7)*%
X91130000Y-120580000D02*
X95210000Y-124660000D01*
%TO.N,Net-(J1-Pin_4)*%
X142690000Y-94140000D02*
X145340000Y-91490000D01*
%TO.N,Net-(J1-Pin_2)*%
X87410000Y-108220000D02*
X87380000Y-108190000D01*
%TO.N,Net-(J1-Pin_7)*%
X131130000Y-114980000D02*
X131130000Y-121920000D01*
%TO.N,Net-(J1-Pin_4)*%
X141240000Y-103100000D02*
X91760000Y-103100000D01*
%TO.N,Net-(J1-Pin_8)*%
X131140000Y-134490000D02*
X131140000Y-138330000D01*
X113520000Y-140470000D02*
X133280000Y-140470000D01*
%TO.N,Net-(J1-Pin_4)*%
X138390000Y-94140000D02*
X142690000Y-94140000D01*
X143190000Y-126100000D02*
X94530000Y-126100000D01*
%TO.N,Net-(J1-Pin_7)*%
X132720000Y-124660000D02*
X133530000Y-124660000D01*
%TO.N,Net-(J1-Pin_1)*%
X85340000Y-91490000D02*
X81350000Y-91490000D01*
%TO.N,Net-(J1-Pin_3)*%
X107500000Y-93410000D02*
X107530000Y-93380000D01*
%TO.N,Net-(J1-Pin_4)*%
X91760000Y-103100000D02*
X89040000Y-100380000D01*
X145370000Y-128280000D02*
X143190000Y-126100000D01*
%TO.N,Net-(J1-Pin_3)*%
X125340000Y-130490000D02*
X125340000Y-129470000D01*
%TO.N,Net-(J1-Pin_8)*%
X91120000Y-134510000D02*
X91120000Y-137600000D01*
%TO.N,Net-(J1-Pin_3)*%
X125330000Y-110980000D02*
X125330000Y-105730000D01*
%TO.N,Net-(J1-Pin_4)*%
X89040000Y-100380000D02*
X89040000Y-89130000D01*
X88790000Y-120360000D02*
X88790000Y-109590000D01*
%TO.N,Net-(J1-Pin_3)*%
X96530000Y-107870000D02*
X101710000Y-113050000D01*
X94130000Y-126820000D02*
X88130000Y-120820000D01*
%TO.N,Net-(J1-Pin_8)*%
X111150000Y-138100000D02*
X113520000Y-140470000D01*
%TO.N,Net-(J1-Pin_1)*%
X85330000Y-110990000D02*
X81240000Y-110990000D01*
%TO.N,Net-(J1-Pin_6)*%
X92110000Y-102160000D02*
X112830000Y-102160000D01*
%TO.N,Net-(J1-Pin_3)*%
X88130000Y-120820000D02*
X88130000Y-108560000D01*
%TO.N,Net-(J1-Pin_6)*%
X153250000Y-102160000D02*
X154860000Y-100550000D01*
%TO.N,Net-(J1-Pin_2)*%
X87380000Y-108190000D02*
X87090000Y-107900000D01*
%TO.N,Net-(J1-Pin_3)*%
X91190000Y-104030000D02*
X87740000Y-100580000D01*
%TO.N,Net-(J1-Pin_2)*%
X87585000Y-107985000D02*
X87735000Y-107835000D01*
X101230000Y-106920000D02*
X105340000Y-111030000D01*
%TO.N,Net-(J1-Pin_4)*%
X89570000Y-88600000D02*
X93870000Y-88600000D01*
%TO.N,Net-(J1-Pin_2)*%
X105340000Y-91490000D02*
X99540000Y-91490000D01*
%TO.N,Net-(J1-Pin_6)*%
X91140000Y-95490000D02*
X91140000Y-101190000D01*
%TO.N,Net-(J1-Pin_2)*%
X88780000Y-87180000D02*
X88600000Y-87180000D01*
%TO.N,Net-(J1-Pin_7)*%
X91130000Y-114990000D02*
X91130000Y-120580000D01*
X131130000Y-121920000D02*
X133530000Y-124320000D01*
%TO.N,Net-(J1-Pin_4)*%
X89620000Y-108760000D02*
X96490000Y-108760000D01*
%TO.N,Net-(J1-Pin_3)*%
X123260000Y-113050000D02*
X125330000Y-110980000D01*
%TO.N,Net-(J1-Pin_1)*%
X85320000Y-130510000D02*
X79820000Y-130510000D01*
%TO.N,Net-(J1-Pin_6)*%
X156100000Y-68960000D02*
X156100000Y-68890000D01*
%TO.N,Net-(J1-Pin_3)*%
X123630000Y-104030000D02*
X91190000Y-104030000D01*
%TO.N,Net-(J1-Pin_8)*%
X93990000Y-140470000D02*
X113520000Y-140470000D01*
X91120000Y-137600000D02*
X93990000Y-140470000D01*
%TO.N,Net-(J1-Pin_6)*%
X151140000Y-96830000D02*
X154860000Y-100550000D01*
X111140000Y-100470000D02*
X112830000Y-102160000D01*
%TO.N,Net-(J1-Pin_3)*%
X101710000Y-113050000D02*
X123260000Y-113050000D01*
%TO.N,Net-(J1-Pin_8)*%
X151170000Y-138680000D02*
X152960000Y-140470000D01*
%TO.N,Net-(J1-Pin_2)*%
X102810000Y-130580000D02*
X100160000Y-127930000D01*
X105350000Y-130580000D02*
X102810000Y-130580000D01*
%TO.N,Net-(J1-Pin_3)*%
X87740000Y-100580000D02*
X87740000Y-89190000D01*
%TO.N,Net-(J1-Pin_7)*%
X95210000Y-124660000D02*
X113590000Y-124660000D01*
%TO.N,Net-(J1-Pin_8)*%
X111150000Y-134580000D02*
X111150000Y-138100000D01*
%TO.N,Net-(J1-Pin_7)*%
X133530000Y-124320000D02*
X133530000Y-124660000D01*
X111140000Y-122210000D02*
X113590000Y-124660000D01*
%TO.N,Net-(J1-Pin_2)*%
X88650000Y-106920000D02*
X101230000Y-106920000D01*
%TO.N,Net-(J1-Pin_3)*%
X88820000Y-107870000D02*
X96530000Y-107870000D01*
X123360000Y-93410000D02*
X125340000Y-91430000D01*
X107500000Y-93410000D02*
X123360000Y-93410000D01*
%TO.N,Net-(J1-Pin_6)*%
X131140000Y-95430000D02*
X131140000Y-97930000D01*
%TO.N,Net-(J1-Pin_4)*%
X145370000Y-111090000D02*
X145370000Y-107030000D01*
X101480000Y-113750000D02*
X142710000Y-113750000D01*
%TO.N,Net-(J1-Pin_2)*%
X100160000Y-127930000D02*
X94070000Y-127930000D01*
%TO.N,Net-(J1-Pin_3)*%
X99960000Y-93410000D02*
X107500000Y-93410000D01*
%TO.N,Net-(J1-Pin_2)*%
X87585000Y-107985000D02*
X88650000Y-106920000D01*
%TO.N,Net-(J1-Pin_3)*%
X88930000Y-88000000D02*
X94550000Y-88000000D01*
%TO.N,Net-(J1-Pin_4)*%
X89040000Y-89130000D02*
X89570000Y-88600000D01*
X145370000Y-107030000D02*
X141340000Y-103000000D01*
%TO.N,Net-(J1-Pin_3)*%
X87740000Y-89190000D02*
X88930000Y-88000000D01*
%TO.N,Net-(J1-Pin_7)*%
X133530000Y-124660000D02*
X154360000Y-124660000D01*
X111140000Y-115030000D02*
X111140000Y-122210000D01*
%TO.N,Net-(J1-Pin_4)*%
X99410000Y-94140000D02*
X138390000Y-94140000D01*
%TO.N,Net-(J1-Pin_8)*%
X131140000Y-138330000D02*
X133280000Y-140470000D01*
%TO.N,Net-(J1-Pin_3)*%
X125330000Y-105730000D02*
X123630000Y-104030000D01*
%TO.N,Net-(J1-Pin_2)*%
X87090000Y-88690000D02*
X88600000Y-87180000D01*
%TO.N,Net-(J1-Pin_4)*%
X93870000Y-88600000D02*
X99410000Y-94140000D01*
X94530000Y-126100000D02*
X88790000Y-120360000D01*
%TO.N,Net-(J1-Pin_6)*%
X151140000Y-95490000D02*
X151140000Y-96830000D01*
X91140000Y-101190000D02*
X92110000Y-102160000D01*
%TO.N,Net-(J1-Pin_2)*%
X87090000Y-107900000D02*
X87090000Y-88690000D01*
%TO.N,Net-(J1-Pin_6)*%
X111140000Y-95490000D02*
X111140000Y-100470000D01*
%TO.N,Net-(J1-Pin_1)*%
X78210000Y-128900000D02*
X78210000Y-107960000D01*
X81240000Y-110990000D02*
X78210000Y-107960000D01*
X78210000Y-107960000D02*
X78210000Y-90030000D01*
X81350000Y-91490000D02*
X78210000Y-88350000D01*
X79820000Y-130510000D02*
X78210000Y-128900000D01*
X85440000Y-69720000D02*
X90185000Y-64975000D01*
X85440000Y-71990000D02*
X85440000Y-69720000D01*
%TO.N,Net-(J1-Pin_2)*%
X113445000Y-67685000D02*
X113445000Y-64975000D01*
X111030000Y-70100000D02*
X113445000Y-67685000D01*
%TO.N,Net-(J1-Pin_1)*%
X90185000Y-64975000D02*
X110905000Y-64975000D01*
%TD*%
M02*
