%TF.GenerationSoftware,KiCad,Pcbnew,10.0.4-10.0.4~ubuntu22.04.1*%
%TF.CreationDate,2026-07-29T11:08:52+02:00*%
%TF.ProjectId,keypad4x4,6b657970-6164-4347-9834-2e6b69636164,rev?*%
%TF.SameCoordinates,Original*%
%TF.FileFunction,Soldermask,Top*%
%TF.FilePolarity,Negative*%
%FSLAX46Y46*%
G04 Gerber Fmt 4.6, Leading zero omitted, Abs format (unit mm)*
G04 Created by KiCad (PCBNEW 10.0.4-10.0.4~ubuntu22.04.1) date 2026-07-29 11:08:52*
%MOMM*%
%LPD*%
G01*
G04 APERTURE LIST*
%ADD10C,3.200000*%
%ADD11R,2.800000X1.000000*%
%ADD12R,1.700000X1.700000*%
%ADD13C,1.700000*%
G04 APERTURE END LIST*
D10*
%TO.C,H2*%
X157940000Y-63760000D03*
%TD*%
%TO.C,H1*%
X80090000Y-64160000D03*
%TD*%
%TO.C,H4*%
X157720000Y-141670000D03*
%TD*%
%TO.C,H3*%
X80640000Y-141310000D03*
%TD*%
D11*
%TO.C,S10*%
X131140000Y-95430000D03*
X125340000Y-95430000D03*
X131140000Y-91430000D03*
X125340000Y-91430000D03*
%TD*%
%TO.C,S12*%
X131140000Y-134490000D03*
X125340000Y-134490000D03*
X131140000Y-130490000D03*
X125340000Y-130490000D03*
%TD*%
%TO.C,S14*%
X151140000Y-95490000D03*
X145340000Y-95490000D03*
X151140000Y-91490000D03*
X145340000Y-91490000D03*
%TD*%
%TO.C,S13*%
X151140000Y-75990000D03*
X145340000Y-75990000D03*
X151140000Y-71990000D03*
X145340000Y-71990000D03*
%TD*%
%TO.C,S15*%
X145370000Y-111090000D03*
X151170000Y-111090000D03*
X145370000Y-115090000D03*
X151170000Y-115090000D03*
%TD*%
%TO.C,S16*%
X145370000Y-130600000D03*
X151170000Y-130600000D03*
X145370000Y-134600000D03*
X151170000Y-134600000D03*
%TD*%
%TO.C,S9*%
X131140000Y-75990000D03*
X125340000Y-75990000D03*
X131140000Y-71990000D03*
X125340000Y-71990000D03*
%TD*%
%TO.C,S11*%
X125330000Y-110980000D03*
X131130000Y-110980000D03*
X125330000Y-114980000D03*
X131130000Y-114980000D03*
%TD*%
D12*
%TO.C,J1*%
X110905000Y-64975000D03*
D13*
X113445000Y-64975000D03*
X115985000Y-64975000D03*
X118525000Y-64975000D03*
X121065000Y-64975000D03*
X123605000Y-64975000D03*
X126145000Y-64975000D03*
X128685000Y-64975000D03*
%TD*%
D11*
%TO.C,S4*%
X85320000Y-130510000D03*
X91120000Y-130510000D03*
X85320000Y-134510000D03*
X91120000Y-134510000D03*
%TD*%
%TO.C,S2*%
X85340000Y-91490000D03*
X91140000Y-91490000D03*
X85340000Y-95490000D03*
X91140000Y-95490000D03*
%TD*%
%TO.C,S3*%
X85330000Y-110990000D03*
X91130000Y-110990000D03*
X85330000Y-114990000D03*
X91130000Y-114990000D03*
%TD*%
%TO.C,S1*%
X91240000Y-75990000D03*
X85440000Y-75990000D03*
X91240000Y-71990000D03*
X85440000Y-71990000D03*
%TD*%
%TO.C,S5*%
X111140000Y-75990000D03*
X105340000Y-75990000D03*
X111140000Y-71990000D03*
X105340000Y-71990000D03*
%TD*%
%TO.C,S7*%
X105340000Y-111030000D03*
X111140000Y-111030000D03*
X105340000Y-115030000D03*
X111140000Y-115030000D03*
%TD*%
%TO.C,S8*%
X105350000Y-130580000D03*
X111150000Y-130580000D03*
X105350000Y-134580000D03*
X111150000Y-134580000D03*
%TD*%
%TO.C,S6*%
X111140000Y-95490000D03*
X105340000Y-95490000D03*
X111140000Y-91490000D03*
X105340000Y-91490000D03*
%TD*%
M02*
